<svg width="117" height="99" viewBox="0 0 117 99" fill="none" xmlns="http://www.w3.org/2000/svg">
<path d="M100.208 46.5417C100.208 23.5068 81.5349 4.83337 58.5 4.83337C35.4651 4.83337 16.7917 23.5068 16.7917 46.5417M82.3333 67.3959V79.3125C82.3333 82.0811 82.3333 83.4654 82.5623 84.6165C83.5026 89.3438 87.1982 93.0411 91.9254 93.9814C93.0766 94.2104 94.4606 94.2104 97.2292 94.2104C99.9977 94.2104 101.382 94.2104 102.533 93.9814C107.26 93.0411 110.955 89.3438 111.895 84.6165C112.124 83.4654 112.125 82.0811 112.125 79.3125V67.3959C112.125 64.6273 112.124 63.2404 111.895 62.0892C110.955 57.362 107.26 53.6693 102.533 52.729C101.382 52.5 99.9977 52.5 97.2292 52.5C94.4606 52.5 93.0766 52.5 91.9254 52.729C87.1982 53.6693 83.5026 57.362 82.5623 62.0892C82.3333 63.2404 82.3333 64.6273 82.3333 67.3959ZM34.6667 67.3959V79.3125C34.6667 82.0811 34.6658 83.4654 34.4368 84.6165C33.4965 89.3438 29.8018 93.0411 25.0746 93.9814C23.9234 94.2104 22.5396 94.2104 19.7711 94.2104C17.0026 94.2104 15.6182 94.2104 14.4671 93.9814C9.73987 93.0411 6.04428 89.3438 5.10398 84.6165C4.875 83.4654 4.875 82.0811 4.875 79.3125V67.3959C4.875 64.6273 4.875 63.2404 5.10398 62.0892C6.04428 57.362 9.73987 53.6693 14.4671 52.729C15.6182 52.5 17.0025 52.5 19.7711 52.5C22.5397 52.5 23.9234 52.5 25.0746 52.729C29.8018 53.6693 33.4965 57.362 34.4368 62.0892C34.6658 63.2404 34.6667 64.6273 34.6667 67.3959Z" stroke="#F5CB2E" stroke-width="9" stroke-linecap="round" stroke-linejoin="round"/>
</svg>
