<svg width="16" height="16" viewBox="0 0 16 16" fill="none" xmlns="http://www.w3.org/2000/svg">
<rect width="16" height="16" fill="#1A1D23"/>
<path fill-rule="evenodd" clip-rule="evenodd" d="M2 5.61804H12.0177C13.0152 5.61804 13.8199 6.45033 13.8199 7.47215C13.8199 8.49396 13.0152 9.32625 12.0177 9.32625H4.16312V9.17174H12.0177C12.9255 9.17174 13.6654 8.41298 13.6654 7.47215C13.6654 6.53131 12.9255 5.77255 12.0177 5.77255H2V5.61804Z" fill="white"/>
<path fill-rule="evenodd" clip-rule="evenodd" d="M2 5.30908H12.0177V5.30966C13.1891 5.33639 14.1305 6.29436 14.1305 7.4722C14.1305 8.65005 13.1891 9.60802 12.0177 9.63475V9.63532H4.16312V9.48081H11.9674C13.0767 9.48081 13.976 8.58153 13.976 7.4722C13.976 6.36288 13.0767 5.46359 11.9674 5.46359H2V5.30908Z" fill="white"/>
<path fill-rule="evenodd" clip-rule="evenodd" d="M2 5H12.0177C13.383 5 14.4898 6.10681 14.4898 7.47214C14.4898 8.83746 13.383 9.94427 12.0177 9.94427H4.16312V9.78977H12.0177C13.2977 9.78977 14.3353 8.75213 14.3353 7.47214C14.3353 6.19215 13.2977 5.15451 12.0177 5.15451H2V5Z" fill="white"/>
<path d="M12.877 8.40301C12.6115 8.65798 12.2807 8.78546 11.8848 8.78546C11.4889 8.78546 11.1582 8.65918 10.8926 8.40662C10.6295 8.15165 10.4979 7.84256 10.4979 7.47935V7.47214C10.4979 7.10652 10.6307 6.79623 10.8963 6.54126C11.1643 6.2863 11.4963 6.15881 11.8922 6.15881C12.2881 6.15881 12.6176 6.2863 12.8807 6.54126C13.1463 6.79383 13.2791 7.10171 13.2791 7.46492V7.47214C13.2791 7.83775 13.1451 8.14804 12.877 8.40301ZM11.4164 7.952C11.5418 8.0867 11.7004 8.15405 11.8922 8.15405C12.084 8.15405 12.2401 8.08911 12.3606 7.95922C12.4836 7.82693 12.5451 7.66697 12.5451 7.47935V7.47214C12.5451 7.28452 12.4824 7.12456 12.3569 6.99227C12.234 6.85757 12.0766 6.79022 11.8848 6.79022C11.693 6.79022 11.5356 6.85637 11.4127 6.98866C11.2897 7.11855 11.2283 7.2773 11.2283 7.46492V7.47214C11.2283 7.65735 11.291 7.8173 11.4164 7.952Z" fill="white"/>
<path d="M7.87134 8.78546V6.15881H9.06254C9.42962 6.15881 9.70313 6.25262 9.88307 6.44024C10.0318 6.59534 10.1062 6.79921 10.1062 7.05187V7.05938C10.1062 7.44712 9.93345 7.71729 9.58797 7.86989L10.189 8.78546H9.38643L8.879 7.98996H8.56951V8.78546H7.87134ZM8.56951 7.4196H9.03375C9.15131 7.4196 9.24248 7.39209 9.30726 7.33705C9.37444 7.27952 9.40803 7.20322 9.40803 7.10816V7.10065C9.40803 6.99809 9.37444 6.92054 9.30726 6.86801C9.24008 6.81297 9.14771 6.78546 9.03015 6.78546H8.56951V7.4196Z" fill="white"/>
<path d="M5.24463 8.78546V6.15881H6.57375C6.88721 6.15881 7.12292 6.23636 7.28088 6.39146C7.39195 6.50903 7.44749 6.65162 7.44749 6.81923V6.82673C7.44749 7.1019 7.3142 7.29703 7.04764 7.4121C7.21548 7.46713 7.34259 7.54593 7.42898 7.6485C7.51783 7.74856 7.56226 7.88364 7.56226 8.05375V8.06126C7.56226 8.2889 7.47587 8.46651 7.3031 8.59409C7.13279 8.72167 6.89214 8.78546 6.58115 8.78546H5.24463ZM6.74035 6.97683V6.96932C6.74035 6.81923 6.63175 6.74418 6.41455 6.74418H5.94436V7.20572H6.39604C6.62558 7.20572 6.74035 7.12942 6.74035 6.97683ZM6.84401 7.95994V7.95244C6.84401 7.79484 6.72678 7.71604 6.4923 7.71604H5.94436V8.20009H6.4997C6.72924 8.20009 6.84401 8.12004 6.84401 7.95994Z" fill="white"/>
<path d="M4.16309 8.78546V6.15881H4.93563V8.78546H4.16309Z" fill="white"/>
<path d="M2 9.94379V6.15881H2.71939V9.17113H3.97647V9.94379H2Z" fill="white"/>
</svg>
