<svg width="143" height="56" viewBox="0 0 143 56" fill="none" xmlns="http://www.w3.org/2000/svg">
<path fill-rule="evenodd" clip-rule="evenodd" d="M5.06121e-06 0H114.696C130.328 0 143 12.536 143 28C143 43.464 130.328 56 114.696 56H24.7663V54.25H114.696C129.351 54.25 141.231 42.4975 141.231 28C141.231 13.5025 129.351 1.75 114.696 1.75H5.06121e-06V0ZM5.06121e-06 3.5H114.696V3.50649C128.108 3.80926 138.886 14.6595 138.886 28C138.886 41.3405 128.108 52.1907 114.696 52.4935V52.5H24.7663V50.75H114.12C126.821 50.75 137.117 40.5645 137.117 28C137.117 15.4355 126.821 5.25 114.12 5.25H5.06121e-06V3.5ZM0 7H114.696C126.116 7 135.33 16.4266 135.33 28C135.33 39.5734 126.116 49 114.696 49H24.7663V47.25H114.696C125.09 47.25 133.561 38.6561 133.561 28C133.561 17.3439 125.09 8.75 114.696 8.75H0V7Z" fill="#F4F0E5"/>
<path d="M124.535 38.5433C121.495 41.4311 117.708 42.875 113.175 42.875C108.642 42.875 104.855 41.4447 101.815 38.5841C98.8023 35.6963 97.2961 32.1955 97.2961 28.0817V28C97.2961 23.859 98.8164 20.3446 101.857 17.4567C104.926 14.5689 108.727 13.125 113.26 13.125C117.792 13.125 121.565 14.5689 124.577 17.4567C127.618 20.3173 129.138 23.8045 129.138 27.9183V28C129.138 32.141 127.604 35.6554 124.535 38.5433ZM107.812 33.4351C109.248 34.9607 111.063 35.7236 113.26 35.7236C115.456 35.7236 117.243 34.988 118.623 33.5168C120.031 32.0184 120.734 30.2067 120.734 28.0817V28C120.734 25.875 120.017 24.0633 118.581 22.5649C117.173 21.0393 115.371 20.2764 113.175 20.2764C110.979 20.2764 109.177 21.0256 107.769 22.524C106.362 23.9952 105.658 25.7933 105.658 27.9183V28C105.658 30.0978 106.376 31.9095 107.812 33.4351Z" fill="#F4F0E5"/>
<path d="M67.2228 42.875V13.125H80.8612C85.064 13.125 88.1955 14.1875 90.2557 16.3125C91.9588 18.0692 92.8104 20.3783 92.8104 23.24V23.325C92.8104 27.7167 90.8326 30.7767 86.877 32.505L93.7581 42.875H84.5696L78.7598 33.865H75.2163V42.875H67.2228ZM75.2163 27.405H80.5316C81.8776 27.405 82.9214 27.0933 83.6631 26.47C84.4322 25.8183 84.8168 24.9542 84.8168 23.8775V23.7925C84.8168 22.6308 84.4322 21.7525 83.6631 21.1575C82.894 20.5342 81.8364 20.2225 80.4904 20.2225H75.2163V27.405Z" fill="#F4F0E5"/>
<path d="M37.1494 42.875V13.125H52.3669C55.9559 13.125 58.6546 14.0033 60.4632 15.76C61.7348 17.0917 62.3707 18.7067 62.3707 20.605V20.69C62.3707 23.8067 60.8447 26.0167 57.7927 27.32C59.7143 27.9433 61.1697 28.8358 62.1587 29.9975C63.1761 31.1308 63.6847 32.6608 63.6847 34.5875V34.6725C63.6847 37.2508 62.6956 39.2625 60.7175 40.7075C58.7676 42.1525 56.0124 42.875 52.4517 42.875H37.1494ZM54.2744 22.39V22.305C54.2744 20.605 53.031 19.755 50.5442 19.755H45.1609V24.9825H50.3323C52.9604 24.9825 54.2744 24.1183 54.2744 22.39ZM55.4613 33.525V33.44C55.4613 31.655 54.119 30.7625 51.4344 30.7625H45.1609V36.245H51.5192C54.1473 36.245 55.4613 35.3383 55.4613 33.525Z" fill="#F4F0E5"/>
<path d="M24.7663 42.875V13.125H33.6114V42.875H24.7663Z" fill="#F4F0E5"/>
<path d="M5.06121e-06 55.9945V13.125H8.23656V47.2432H22.6293V55.9945H5.06121e-06Z" fill="#F4F0E5"/>
</svg>
