<svg width="251" height="381" viewBox="0 0 251 381" fill="none" xmlns="http://www.w3.org/2000/svg">
<rect width="251" height="381" fill="#C8C6BE" fill-opacity="0.5"/>
<path d="M167.325 159.896C168.684 159.897 169.893 160.422 170.771 161.259V161.26C171.646 162.095 172.19 163.276 172.19 164.516V229.881C172.19 231.078 171.713 232.157 170.932 232.978L170.771 233.138C170.694 233.212 170.642 233.259 170.566 233.308L170.535 233.328L170.507 233.353C169.676 234.077 168.545 234.5 167.285 234.5H71.3652C70.0897 234.5 68.9473 234.038 68.0869 233.291L67.918 233.138C67.0429 232.302 66.5001 231.122 66.5 229.882V164.517C66.5001 163.32 66.9759 162.241 67.7578 161.421L67.918 161.261C68.7389 160.477 69.8882 159.964 71.1182 159.903L71.3652 159.897H71.377L71.417 159.896H167.325ZM71.9131 229.381H166.815V228.881L166.816 165.479V164.979H71.9131V229.381ZM156.954 222.247H81.8691V218.326L87.8086 218.045L88.1221 218.03L88.2451 217.742L94.1152 204.013L96.9248 213.404L97.0312 213.761H107.364L107.491 213.449L115.472 193.817L125.534 208.947L125.971 209.603L126.378 208.93L141.263 184.368L156.954 222.247ZM87.3779 145.5H182.814C184.33 145.5 185.5 146.68 185.5 148.041V212.251C185.5 213.644 184.299 214.793 182.814 214.793C181.297 214.793 180.127 213.613 180.127 212.251V150.62H87.8779V150.581H87.3779C85.8615 150.581 84.6914 149.402 84.6914 148.04C84.6915 146.649 85.8932 145.5 87.3779 145.5ZM93.5566 177.644C97.5546 177.644 100.754 180.729 100.754 184.489C100.754 188.249 97.5547 191.337 93.5566 191.337C89.5587 191.337 86.3594 188.249 86.3594 184.489L86.3691 184.139C86.56 180.54 89.6837 177.644 93.5566 177.644Z" stroke="#1A1D23"/>
</svg>
