<svg width="54" height="54" viewBox="0 0 54 54" fill="none" xmlns="http://www.w3.org/2000/svg">
<path d="M9 13.5L22.7422 23.8776L22.7468 23.8814C24.2727 25.0004 25.0361 25.5602 25.8722 25.7765C26.6113 25.9676 27.3881 25.9676 28.1272 25.7765C28.9641 25.56 29.7297 24.9986 31.2583 23.8776C31.2583 23.8776 40.0727 17.1134 45 13.5M6.75 35.5504V18.4504C6.75 15.9302 6.75 14.6691 7.24047 13.7065C7.6719 12.8598 8.35981 12.1719 9.20654 11.7405C10.1691 11.25 11.4302 11.25 13.9504 11.25H40.0504C42.5707 11.25 43.829 11.25 44.7916 11.7405C45.6384 12.1719 46.3286 12.8598 46.76 13.7065C47.25 14.6682 47.25 15.9277 47.25 18.443V35.5581C47.25 38.0734 47.25 39.3311 46.76 40.2927C46.3286 41.1395 45.6384 41.8286 44.7916 42.26C43.83 42.75 42.5723 42.75 40.057 42.75H13.943C11.4277 42.75 10.1682 42.75 9.20654 42.26C8.35981 41.8286 7.6719 41.1395 7.24047 40.2927C6.75 39.3301 6.75 38.0707 6.75 35.5504Z" stroke="#1A1D23" stroke-width="3" stroke-linecap="round" stroke-linejoin="round"/>
</svg>
