<svg width="28" height="29" viewBox="0 0 28 29" fill="none" xmlns="http://www.w3.org/2000/svg">
<g clip-path="url(#clip0_421_6626)">
<path d="M14.0003 14.6993C12.9174 14.6993 11.8787 15.1295 11.113 15.8953C10.3472 16.661 9.91699 17.6996 9.91699 18.7826C9.91699 19.8656 10.3472 20.9042 11.113 21.67C11.8787 22.4357 12.9174 22.8659 14.0003 22.8659C15.0833 22.8659 16.1219 22.4357 16.8877 21.67C17.6535 20.9042 18.0837 19.8656 18.0837 18.7826C18.0837 17.6996 17.6535 16.661 16.8877 15.8953C16.1219 15.1295 15.0833 14.6993 14.0003 14.6993ZM12.2503 18.7826C12.2503 18.3185 12.4347 17.8734 12.7629 17.5452C13.0911 17.217 13.5362 17.0326 14.0003 17.0326C14.4645 17.0326 14.9096 17.217 15.2378 17.5452C15.566 17.8734 15.7503 18.3185 15.7503 18.7826C15.7503 19.2467 15.566 19.6919 15.2378 20.02C14.9096 20.3482 14.4645 20.5326 14.0003 20.5326C13.5362 20.5326 13.0911 20.3482 12.7629 20.02C12.4347 19.6919 12.2503 19.2467 12.2503 18.7826Z" fill="black"/>
<path d="M20.447 6.08466L16.7382 0.884827L3.101 11.7792L2.345 11.771V11.7827H1.75V25.7827H26.25V11.7827H25.1277L22.8947 5.25049L20.447 6.08466ZM22.6625 11.7827H10.9632L19.677 8.81233L21.4527 8.24416L22.6625 11.7827ZM18.1417 6.87099L9.14667 9.93699L16.2703 4.24599L18.1417 6.87099ZM4.08333 21.3132V16.2498C4.57587 16.076 5.02326 15.7941 5.39269 15.4249C5.76212 15.0557 6.04423 14.6084 6.21833 14.116H21.7817C21.9556 14.6087 22.2377 15.0561 22.6071 15.4256C22.9765 15.795 23.424 16.077 23.9167 16.251V21.3143C23.424 21.4883 22.9765 21.7703 22.6071 22.1398C22.2377 22.5092 21.9556 22.9567 21.7817 23.4493H6.22067C6.04588 22.9566 5.76329 22.5092 5.39352 22.1396C5.02375 21.77 4.57613 21.4877 4.08333 21.3132Z" fill="black"/>
</g>
<defs>
<clipPath id="clip0_421_6626">
<rect width="28" height="28" fill="white" transform="translate(0 0.115967)"/>
</clipPath>
</defs>
</svg>
