<svg width="13" height="13" viewBox="0 0 13 13" fill="none" xmlns="http://www.w3.org/2000/svg">
<path d="M6.02448 0.96332C6.17416 0.502689 6.82584 0.502688 6.97552 0.963319L8.07174 4.33671C8.13868 4.5427 8.33065 4.68217 8.54725 4.68218L12.0943 4.68231C12.5786 4.68233 12.78 5.30211 12.3882 5.58681L9.51864 7.67181C9.34341 7.79914 9.27009 8.0248 9.33701 8.2308L10.433 11.6043C10.5826 12.0649 10.0554 12.448 9.66357 12.1633L6.79388 10.0785C6.61864 9.95119 6.38136 9.95119 6.20612 10.0785L3.33643 12.1633C2.94458 12.448 2.41737 12.0649 2.56702 11.6043L3.66299 8.2308C3.72991 8.0248 3.65659 7.79914 3.48136 7.67181L0.611831 5.58681C0.220001 5.30211 0.421377 4.68233 0.905719 4.68231L4.45275 4.68218C4.66935 4.68217 4.86132 4.5427 4.92826 4.33671L6.02448 0.96332Z" fill="#1A1D23"/>
</svg>
