<svg width="33" height="33" viewBox="0 0 33 33" fill="none" xmlns="http://www.w3.org/2000/svg">
<path d="M0 16.5C0 7.3873 7.3873 0 16.5 0C25.6127 0 33 7.3873 33 16.5C33 25.6127 25.6127 33 16.5 33C7.3873 33 0 25.6127 0 16.5Z" fill="#FF642E"/>
<g clip-path="url(#clip0_600_2955)">
<path d="M9 7.5C8.44772 7.5 8 7.94772 8 8.5C8 9.05228 8.44772 9.5 9 9.5V7.5ZM10.6667 8.5L11.6638 8.42446C11.6243 7.90297 11.1896 7.5 10.6667 7.5V8.5ZM24 11.0385L24.9941 11.1472C25.025 10.8648 24.9343 10.5825 24.7446 10.3709C24.5549 10.1593 24.2842 10.0385 24 10.0385V11.0385ZM10.859 11.0385L9.86183 11.114L10.859 11.0385ZM21.5045 18.7744L21.5768 19.7718L21.5045 18.7744ZM23.3479 16.9972L22.3539 16.8884L23.3479 16.9972ZM9 9.5H10.6667V7.5H9V9.5ZM13.5607 20.3532L21.5768 19.7718L21.4322 17.777L13.416 18.3584L13.5607 20.3532ZM24.342 17.106L24.9941 11.1472L23.0059 10.9297L22.3539 16.8884L24.342 17.106ZM9.66952 8.57554L9.86183 11.114L11.8561 10.9629L11.6638 8.42446L9.66952 8.57554ZM9.86183 11.114L10.3523 17.5877L12.3465 17.4366L11.8561 10.9629L9.86183 11.114ZM24 10.0385H10.859V12.0385H24V10.0385ZM21.5768 19.7718C23.0211 19.667 24.1845 18.5455 24.342 17.106L22.3539 16.8884C22.3014 17.3683 21.9136 17.7421 21.4322 17.777L21.5768 19.7718ZM13.416 18.3584C12.8664 18.3983 12.3882 17.986 12.3465 17.4366L10.3523 17.5877C10.4771 19.236 11.9119 20.4727 13.5607 20.3532L13.416 18.3584Z" fill="#1A1D23"/>
<rect x="14" y="23.5" width="0.1" height="0.1" stroke="#1A1D23" stroke-width="2" stroke-linejoin="round"/>
<rect x="21" y="23.5" width="0.1" height="0.1" stroke="#1A1D23" stroke-width="2" stroke-linejoin="round"/>
</g>
<defs>
<clipPath id="clip0_600_2955">
<rect width="17" height="19" fill="white" transform="translate(8 7)"/>
</clipPath>
</defs>
</svg>
