<svg width="14" height="15" viewBox="0 0 14 15" fill="none" xmlns="http://www.w3.org/2000/svg">
<path d="M1.32812 1.26611C0.77584 1.26611 0.328125 1.71383 0.328125 2.26611C0.328125 2.8184 0.77584 3.26611 1.32812 3.26611V1.26611ZM2.54626 2.26611L3.54332 2.18942C3.50324 1.66842 3.0688 1.26611 2.54626 1.26611V2.26611ZM12.2914 4.09332L13.2853 4.20375C13.3167 3.92105 13.2262 3.63835 13.0365 3.4264C12.8468 3.21445 12.5758 3.09332 12.2914 3.09332V4.09332ZM2.68682 4.09332L1.68976 4.17002H1.68976L2.68682 4.09332ZM5.13938 10.0423L5.06813 9.04484L5.13938 10.0423ZM1.32812 3.26611H2.54626V1.26611H1.32812V3.26611ZM5.21063 11.0398L10.0922 10.6911L9.94972 8.69616L5.06813 9.04484L5.21063 11.0398ZM12.8601 8.03L13.2853 4.20375L11.2975 3.98289L10.8724 7.80913L12.8601 8.03ZM1.54921 2.34281L1.68976 4.17002L3.68387 4.01663L3.54332 2.18942L1.54921 2.34281ZM1.68976 4.17002L2.00572 8.27747L3.99983 8.12408L3.68387 4.01663L1.68976 4.17002ZM12.2914 3.09332H2.68682V5.09332H12.2914V3.09332ZM10.0922 10.6911C11.536 10.5879 12.7003 9.46861 12.8601 8.03L10.8724 7.80913C10.8191 8.28867 10.431 8.66178 9.94972 8.69616L10.0922 10.6911ZM5.06813 9.04484C4.51938 9.08404 4.04203 8.67261 3.99983 8.12408L2.00572 8.27747C2.13231 9.92307 3.56437 11.1574 5.21063 11.0398L5.06813 9.04484Z" fill="#1A1D23"/>
<rect x="4.67773" y="12.9248" width="0.00684265" height="0.00684265" stroke="#1A1D23" stroke-width="2" stroke-linejoin="round"/>
<rect x="10.1582" y="12.9248" width="0.00684265" height="0.00684265" stroke="#1A1D23" stroke-width="2" stroke-linejoin="round"/>
</svg>
