<svg width="44" height="36" viewBox="0 0 44 36" fill="none" xmlns="http://www.w3.org/2000/svg">
<path d="M4 4.5L17.7422 14.8776L17.7468 14.8814C19.2727 16.0004 20.0361 16.5602 20.8722 16.7765C21.6113 16.9676 22.3881 16.9676 23.1272 16.7765C23.9641 16.56 24.7297 15.9986 26.2583 14.8776C26.2583 14.8776 35.0727 8.11336 40 4.5M1.75 26.5504V9.45044C1.75 6.9302 1.75 5.66915 2.24047 4.70654C2.6719 3.85981 3.35981 3.1719 4.20654 2.74047C5.16915 2.25 6.4302 2.25 8.95044 2.25H35.0504C37.5707 2.25 38.829 2.25 39.7916 2.74047C40.6384 3.1719 41.3286 3.85981 41.76 4.70654C42.25 5.6682 42.25 6.92774 42.25 9.44305V26.5581C42.25 29.0734 42.25 30.3311 41.76 31.2927C41.3286 32.1395 40.6384 32.8286 39.7916 33.26C38.83 33.75 37.5723 33.75 35.057 33.75H8.94305C6.42774 33.75 5.1682 33.75 4.20654 33.26C3.35981 32.8286 2.6719 32.1395 2.24047 31.2927C1.75 30.3301 1.75 29.0707 1.75 26.5504Z" stroke="#1A1D23" stroke-width="3" stroke-linecap="round" stroke-linejoin="round"/>
</svg>
