<svg width="24" height="24" viewBox="0 0 24 24" fill="none" xmlns="http://www.w3.org/2000/svg">
<path d="M11.9929 1.50195C12.0628 1.50195 12.1316 1.51687 12.1951 1.54492L12.2576 1.57715C12.3168 1.61406 12.367 1.66341 12.406 1.7207L12.4412 1.78125L15.2937 7.56152L15.4099 7.79688L15.6707 7.83496L22.0505 8.76074C22.1379 8.77343 22.2206 8.80934 22.2898 8.86426C22.3588 8.9191 22.4119 8.99119 22.4441 9.07324C22.4763 9.15556 22.486 9.24568 22.4724 9.33301C22.4591 9.41795 22.4231 9.49704 22.3699 9.56445L22.321 9.61816L17.7039 14.1123L17.5154 14.2959L17.5603 14.5557L18.6511 20.9102V20.9111C18.6661 20.9984 18.6578 21.088 18.6267 21.1709C18.5956 21.254 18.5432 21.3278 18.4744 21.3838C18.4056 21.4398 18.3227 21.4757 18.2351 21.4893C18.1494 21.5025 18.0622 21.4927 17.9812 21.4619L17.9177 21.4336L12.2322 18.4375L11.9998 18.3145L11.7664 18.4375L6.0603 21.4375C5.98195 21.4787 5.89389 21.498 5.80542 21.4941C5.71689 21.4902 5.63087 21.4631 5.5564 21.415C5.48208 21.3671 5.42168 21.3005 5.38159 21.2217C5.34303 21.1457 5.32457 21.0606 5.32788 20.9756L5.33862 20.8848L6.42456 14.5557L6.46948 14.2959L6.28101 14.1123L1.65894 9.61328H1.65796C1.59453 9.55166 1.54893 9.47385 1.52515 9.38867C1.50738 9.32494 1.50247 9.2586 1.5105 9.19336L1.52319 9.12793C1.54558 9.0424 1.5897 8.96401 1.6521 8.90137C1.71294 8.84029 1.78889 8.79667 1.87183 8.77344L1.94995 8.75684L8.31519 7.83496L8.57495 7.79688L8.69116 7.56152L11.5447 1.78125C11.5756 1.71841 11.6192 1.66274 11.6726 1.61816L11.7292 1.57715C11.8084 1.528 11.8997 1.50197 11.9929 1.50195Z" stroke="#FF642E"/>
</svg>
