<svg width="24" height="24" viewBox="0 0 24 24" fill="none" xmlns="http://www.w3.org/2000/svg">
<g clip-path="url(#clip0_1268_21717)">
<path d="M8 6.14239L8 4.4709C8 3.30611 8 2.72371 8.34942 2.36186C8.69883 2 9.26121 2 10.386 2L13.614 2C14.7388 2 15.3012 2 15.6506 2.36186C16 2.72371 16 3.30611 16 4.4709V6.14239" stroke="#FF642E" stroke-width="2"/>
<path d="M14 11.2153V16.2153" stroke="#FF642E" stroke-width="2" stroke-linecap="round"/>
<path d="M10 11.2153V16.2153" stroke="#FF642E" stroke-width="2" stroke-linecap="round"/>
<path d="M12 21C10.6442 21 9.70218 20.999 8.97266 20.9248C8.35042 20.8615 7.96165 20.7506 7.66602 20.5889L7.54492 20.5166C7.34953 20.3898 7.16938 20.2412 7.00879 20.0732L6.85547 19.8994C6.62098 19.6127 6.44287 19.2239 6.29297 18.5254C6.1776 17.9877 6.08966 17.3263 5.99023 16.4609L5.88574 15.5234L4.88184 6.43066L19.1182 6.43066L18.1143 15.5234C17.9654 16.8714 17.8609 17.8083 17.707 18.5254C17.5759 19.1364 17.4235 19.5101 17.2305 19.7861L17.1455 19.8994C16.9981 20.0796 16.83 20.2417 16.6455 20.3828L16.4551 20.5166C16.1444 20.7181 15.7389 20.8525 15.0283 20.9248C14.4811 20.9805 13.8138 20.9952 12.9424 20.999L12 21Z" stroke="#FF642E" stroke-width="2"/>
<path d="M3 6.12207H21" stroke="#FF642E" stroke-width="2" stroke-linecap="round"/>
</g>
<defs>
<clipPath id="clip0_1268_21717">
<rect width="24" height="24" fill="white"/>
</clipPath>
</defs>
</svg>
