<svg width="22" height="22" viewBox="0 0 22 22" fill="none" xmlns="http://www.w3.org/2000/svg">
<path d="M14 15H6.73244M14 15V7.5M14 15H15.2676M3.26756 15H2C1.44772 15 1 14.5523 1 14V5C1 4.44771 1.44772 4 2 4H13C13.5523 4 14 4.44772 14 5V7.5M14 7.5H18L21 11V15H18.7324M7 16C7 17.1046 6.10457 18 5 18C3.89543 18 3 17.1046 3 16C3 14.8954 3.89543 14 5 14C6.10457 14 7 14.8954 7 16ZM19 16C19 17.1046 18.1046 18 17 18C15.8954 18 15 17.1046 15 16C15 14.8954 15.8954 14 17 14C18.1046 14 19 14.8954 19 16Z" stroke="#9C9C97" stroke-width="2" stroke-linecap="round" stroke-linejoin="round"/>
</svg>
