<svg width="30" height="30" viewBox="0 0 30 30" fill="none" xmlns="http://www.w3.org/2000/svg">
<path d="M7 14V22C7 23.1046 7.89543 24 9 24H21C22.1046 24 23 23.1046 23 22V14" stroke="white" stroke-width="2" stroke-linecap="round" stroke-linejoin="round"/>
<path d="M9 7.5C9 6.11929 10.1193 5 11.5 5V5C13.433 5 15 6.567 15 8.5V10H11.5C10.1193 10 9 8.88071 9 7.5V7.5Z" stroke="white" stroke-width="2" stroke-linejoin="round"/>
<path d="M21 7.5C21 6.11929 19.8807 5 18.5 5V5C16.567 5 15 6.567 15 8.5V10H18.5C19.8807 10 21 8.88071 21 7.5V7.5Z" stroke="white" stroke-width="2" stroke-linejoin="round"/>
<path d="M6 10H24V14H6V10Z" stroke="white" stroke-width="2" stroke-linecap="round" stroke-linejoin="round"/>
<path d="M15 14V24" stroke="white" stroke-width="2" stroke-linecap="round" stroke-linejoin="round"/>
</svg>
