<svg width="30" height="30" viewBox="0 0 30 30" fill="none" xmlns="http://www.w3.org/2000/svg">
<path d="M25.4374 11.1537L24.9797 10.899C24.9086 10.8595 24.8736 10.8396 24.8393 10.819C24.4979 10.6146 24.2102 10.332 24.0002 9.99404C23.9791 9.96003 23.9592 9.92436 23.9185 9.85387C23.8778 9.78347 23.8572 9.74779 23.8383 9.71248C23.65 9.36083 23.5481 8.96894 23.542 8.57008C23.5414 8.52998 23.5415 8.48901 23.5429 8.40756L23.5518 7.87598C23.5662 7.02532 23.5733 6.59867 23.4538 6.21577C23.3476 5.87567 23.17 5.56241 22.9327 5.29656C22.6646 4.99606 22.2934 4.78168 21.5503 4.35345L20.933 3.99776C20.192 3.57072 19.8213 3.35714 19.4279 3.27571C19.0798 3.20367 18.7207 3.20701 18.3739 3.28486C17.9824 3.37273 17.6164 3.59189 16.8848 4.02995L16.8807 4.03194L16.4384 4.29676C16.3685 4.33864 16.3331 4.35974 16.298 4.37923C15.9502 4.57263 15.5618 4.67957 15.1641 4.69234C15.124 4.69362 15.0832 4.69362 15.0016 4.69362C14.9206 4.69362 14.8781 4.69362 14.8381 4.69234C14.4394 4.67951 14.0503 4.57199 13.7019 4.37779C13.6668 4.35822 13.632 4.33695 13.562 4.29488L13.1169 4.02766C12.3803 3.58545 12.0114 3.36402 11.6178 3.27571C11.2696 3.19758 10.9092 3.19542 10.5599 3.26839C10.1654 3.35077 9.79471 3.56594 9.05323 3.99629L9.04993 3.99776L8.44035 4.35155L8.43361 4.35568C7.6988 4.78215 7.33051 4.9959 7.06462 5.29517C6.82867 5.56075 6.65231 5.87352 6.54675 6.21272C6.42743 6.59614 6.43379 7.0237 6.44817 7.87837L6.4571 8.4092C6.45845 8.48958 6.46079 8.52952 6.46021 8.56906C6.45429 8.96874 6.35107 9.36142 6.16218 9.7137C6.1435 9.74854 6.12337 9.78338 6.08318 9.85297C6.04295 9.92261 6.02347 9.95724 6.00261 9.99084C5.7917 10.3307 5.50267 10.6148 5.15916 10.8197C5.12519 10.8399 5.08938 10.8594 5.01902 10.8984L4.56706 11.1488C3.8151 11.5656 3.43921 11.7741 3.1657 12.0709C2.92373 12.3334 2.74094 12.6448 2.62936 12.984C2.50324 13.3673 2.50334 13.7972 2.50529 14.6569L2.50689 15.3596C2.50883 16.2136 2.51149 16.6402 2.6379 17.021C2.74973 17.3579 2.93119 17.6675 3.1718 17.9284C3.44377 18.2234 3.81592 18.4306 4.56218 18.8458L5.01011 19.095C5.08634 19.1374 5.1247 19.1583 5.16146 19.1804C5.50185 19.3854 5.78861 19.6688 5.99773 20.0067C6.02032 20.0432 6.042 20.0811 6.08537 20.1568C6.1282 20.2316 6.15011 20.2691 6.16992 20.3066C6.35326 20.6537 6.45142 21.0393 6.45812 21.4318C6.45884 21.4742 6.45822 21.5171 6.45677 21.6033L6.44817 22.1127C6.43369 22.9704 6.42738 23.3996 6.5474 23.7841C6.65358 24.1242 6.83105 24.4375 7.06828 24.7033C7.33644 25.0038 7.70819 25.2181 8.45134 25.6463L9.06847 26.0019C9.80954 26.429 10.1799 26.6423 10.5734 26.7237C10.9214 26.7958 11.2808 26.793 11.6276 26.7151C12.0196 26.6271 12.3869 26.4072 13.1205 25.9679L13.5628 25.7031C13.6328 25.6612 13.6682 25.6402 13.7033 25.6207C14.0511 25.4273 14.439 25.3198 14.8368 25.307C14.8769 25.3057 14.9177 25.3057 14.9993 25.3057C15.081 25.3057 15.1217 25.3057 15.1619 25.307C15.5606 25.3199 15.9509 25.4277 16.2992 25.6219C16.3299 25.639 16.3606 25.6574 16.4145 25.6898L16.8847 25.9721C17.6214 26.4144 17.9895 26.6352 18.3831 26.7235C18.7313 26.8016 19.092 26.8048 19.4413 26.7318C19.8357 26.6495 20.2071 26.4339 20.9482 26.0038L21.567 25.6446C22.3022 25.2179 22.6709 25.0039 22.9369 24.7045C23.1728 24.439 23.3494 24.1263 23.455 23.7871C23.5735 23.4065 23.5663 22.9822 23.5521 22.1399L23.5429 21.5905C23.5415 21.5101 23.5414 21.4702 23.542 21.4306C23.5479 21.0309 23.6494 20.638 23.8383 20.2857C23.857 20.2509 23.8772 20.2158 23.9173 20.1464C23.9575 20.0768 23.9783 20.0421 23.9992 20.0085C24.2101 19.6687 24.4994 19.3843 24.8429 19.1794C24.8765 19.1594 24.9111 19.1403 24.9797 19.1022L24.9821 19.1011L25.4341 18.8507C26.186 18.434 26.5626 18.2252 26.8361 17.9284C27.0781 17.6659 27.2607 17.3549 27.3722 17.0158C27.4976 16.6346 27.4967 16.2072 27.4947 15.3576L27.4931 14.6398C27.4911 13.7859 27.4901 13.3592 27.3637 12.9785C27.2519 12.6416 27.0694 12.332 26.8288 12.0711C26.5571 11.7764 26.1844 11.5691 25.4396 11.1547L25.4374 11.1537Z" stroke="white" stroke-width="2" stroke-linecap="round" stroke-linejoin="round"/>
<path d="M10.0004 15C10.0004 17.7614 12.239 20 15.0004 20C17.7618 20 20.0004 17.7614 20.0004 15C20.0004 12.2385 17.7618 9.99995 15.0004 9.99995C12.239 9.99995 10.0004 12.2385 10.0004 15Z" stroke="white" stroke-width="2" stroke-linecap="round" stroke-linejoin="round"/>
</svg>
