<svg width="30" height="30" viewBox="0 0 30 30" fill="none" xmlns="http://www.w3.org/2000/svg">
<path d="M18 19H10.7324M18 19V11.5M18 19H19.2676M7.26756 19H6C5.44772 19 5 18.5523 5 18V9C5 8.44771 5.44772 8 6 8H17C17.5523 8 18 8.44772 18 9V11.5M18 11.5H22L25 15V19H22.7324M11 20C11 21.1046 10.1046 22 9 22C7.89543 22 7 21.1046 7 20C7 18.8954 7.89543 18 9 18C10.1046 18 11 18.8954 11 20ZM23 20C23 21.1046 22.1046 22 21 22C19.8954 22 19 21.1046 19 20C19 18.8954 19.8954 18 21 18C22.1046 18 23 18.8954 23 20Z" stroke="#F4F0E5" stroke-width="2" stroke-linecap="round" stroke-linejoin="round"/>
</svg>
